<mxfile host="app.diagrams.net" modified="2024-03-02T17:48:04.693Z" agent="Mozilla/5.0 (Windows NT 10.0; Win64; x64) AppleWebKit/537.36 (KHTML, like Gecko) Chrome/122.0.0.0 Safari/537.36" etag="9XllaR65fX7Db2zzghXV" version="24.0.1" type="device">
  <diagram name="1 oldal" id="5f3HVo8hbHReEV7IO18l">
    <mxGraphModel dx="2261" dy="709" grid="1" gridSize="10" guides="1" tooltips="1" connect="1" arrows="1" fold="1" page="1" pageScale="1" pageWidth="827" pageHeight="1169" math="0" shadow="0">
      <root>
        <mxCell id="0" />
        <mxCell id="1" parent="0" />
        <mxCell id="8r3OX-Z8Waoc3_b8A32Y-9" value="" style="group" parent="1" vertex="1" connectable="0">
          <mxGeometry x="120" y="130" width="480" height="380" as="geometry" />
        </mxCell>
        <mxCell id="8r3OX-Z8Waoc3_b8A32Y-10" value="" style="html=1;dashed=0;whitespace=wrap;rounded=0;sketch=0;strokeColor=#000000;align=left;" parent="8r3OX-Z8Waoc3_b8A32Y-9" vertex="1">
          <mxGeometry y="-12.22" width="480" height="392.22" as="geometry" />
        </mxCell>
        <mxCell id="8r3OX-Z8Waoc3_b8A32Y-11" value="2." style="text;html=1;resizable=0;autosize=1;align=center;verticalAlign=middle;points=[];fillColor=none;rounded=0;sketch=0;strokeColor=#000000;" parent="8r3OX-Z8Waoc3_b8A32Y-9" vertex="1">
          <mxGeometry y="-12.216111111111115" width="30" height="30" as="geometry" />
        </mxCell>
        <mxCell id="8r3OX-Z8Waoc3_b8A32Y-13" value="Bejelentkezési oldal" style="rounded=0;whiteSpace=wrap;html=1;sketch=0;strokeColor=#000000;align=left;" parent="8r3OX-Z8Waoc3_b8A32Y-9" vertex="1">
          <mxGeometry x="30" y="-12.22" width="450" height="30" as="geometry" />
        </mxCell>
        <mxCell id="8r3OX-Z8Waoc3_b8A32Y-16" value="" style="group" parent="8r3OX-Z8Waoc3_b8A32Y-9" vertex="1" connectable="0">
          <mxGeometry x="40" y="50" width="140" height="90" as="geometry" />
        </mxCell>
        <mxCell id="8r3OX-Z8Waoc3_b8A32Y-17" value="" style="html=1;dashed=0;whitespace=wrap;rounded=0;sketch=0;strokeColor=#000000;align=left;" parent="8r3OX-Z8Waoc3_b8A32Y-16" vertex="1">
          <mxGeometry width="140" height="90" as="geometry" />
        </mxCell>
        <mxCell id="8r3OX-Z8Waoc3_b8A32Y-18" value="2.1" style="text;html=1;resizable=0;autosize=1;align=center;verticalAlign=middle;points=[];fillColor=none;rounded=0;sketch=0;strokeColor=#000000;" parent="8r3OX-Z8Waoc3_b8A32Y-16" vertex="1">
          <mxGeometry y="0.004999999999999893" width="40" height="30" as="geometry" />
        </mxCell>
        <mxCell id="8r3OX-Z8Waoc3_b8A32Y-19" value="Bejelentkezési adatok &lt;br&gt;érvényessége" style="text;html=1;resizable=0;autosize=1;align=center;verticalAlign=middle;points=[];fillColor=none;strokeColor=none;rounded=0;sketch=0;" parent="8r3OX-Z8Waoc3_b8A32Y-16" vertex="1">
          <mxGeometry y="33.75" width="140" height="40" as="geometry" />
        </mxCell>
        <mxCell id="8r3OX-Z8Waoc3_b8A32Y-20" value="Bejelentkezési lap" style="rounded=0;whiteSpace=wrap;html=1;sketch=0;strokeColor=#000000;align=left;" parent="8r3OX-Z8Waoc3_b8A32Y-16" vertex="1">
          <mxGeometry x="40" width="100" height="30" as="geometry" />
        </mxCell>
        <mxCell id="LLBartqxIDHO0LPS1yn0-2" value="" style="endArrow=none;html=1;rounded=0;exitX=0.993;exitY=0.881;exitDx=0;exitDy=0;entryX=0.75;entryY=1;entryDx=0;entryDy=0;exitPerimeter=0;" parent="8r3OX-Z8Waoc3_b8A32Y-16" source="8r3OX-Z8Waoc3_b8A32Y-19" target="8r3OX-Z8Waoc3_b8A32Y-17" edge="1">
          <mxGeometry width="50" height="50" relative="1" as="geometry">
            <mxPoint x="115" y="240" as="sourcePoint" />
            <mxPoint x="150" y="215" as="targetPoint" />
          </mxGeometry>
        </mxCell>
        <mxCell id="LLBartqxIDHO0LPS1yn0-7" value="" style="dashed=0;aspect=fixed;verticalLabelPosition=bottom;verticalAlign=top;align=center;shape=mxgraph.gmdl.star;strokeColor=none;fillColor=#737373;shadow=0;sketch=0;" parent="8r3OX-Z8Waoc3_b8A32Y-16" vertex="1">
          <mxGeometry x="125" y="76.75" width="10" height="10" as="geometry" />
        </mxCell>
        <mxCell id="8r3OX-Z8Waoc3_b8A32Y-21" value="" style="group" parent="8r3OX-Z8Waoc3_b8A32Y-9" vertex="1" connectable="0">
          <mxGeometry x="40" y="180" width="155" height="100" as="geometry" />
        </mxCell>
        <mxCell id="8r3OX-Z8Waoc3_b8A32Y-22" value="" style="html=1;dashed=0;whitespace=wrap;rounded=0;sketch=0;strokeColor=#000000;align=left;" parent="8r3OX-Z8Waoc3_b8A32Y-21" vertex="1">
          <mxGeometry width="140" height="100" as="geometry" />
        </mxCell>
        <mxCell id="8r3OX-Z8Waoc3_b8A32Y-23" value="2.2" style="text;html=1;resizable=0;autosize=1;align=center;verticalAlign=middle;points=[];fillColor=none;rounded=0;sketch=0;strokeColor=#000000;" parent="8r3OX-Z8Waoc3_b8A32Y-21" vertex="1">
          <mxGeometry width="40" height="30" as="geometry" />
        </mxCell>
        <mxCell id="8r3OX-Z8Waoc3_b8A32Y-24" value="Érvénytelen&lt;br&gt;felhasználónév&lt;br&gt;vagy jelszó" style="text;html=1;resizable=0;autosize=1;align=center;verticalAlign=middle;points=[];fillColor=none;strokeColor=none;rounded=0;sketch=0;" parent="8r3OX-Z8Waoc3_b8A32Y-21" vertex="1">
          <mxGeometry x="20" y="30" width="100" height="60" as="geometry" />
        </mxCell>
        <mxCell id="8r3OX-Z8Waoc3_b8A32Y-25" value="Hibaüzenet" style="rounded=0;whiteSpace=wrap;html=1;sketch=0;strokeColor=#000000;align=left;" parent="8r3OX-Z8Waoc3_b8A32Y-21" vertex="1">
          <mxGeometry x="40" width="100" height="30" as="geometry" />
        </mxCell>
        <mxCell id="8r3OX-Z8Waoc3_b8A32Y-41" value="" style="group" parent="8r3OX-Z8Waoc3_b8A32Y-9" vertex="1" connectable="0">
          <mxGeometry x="269.99999999999994" y="100" width="140" height="80" as="geometry" />
        </mxCell>
        <mxCell id="8r3OX-Z8Waoc3_b8A32Y-42" value="" style="html=1;dashed=0;whitespace=wrap;rounded=0;sketch=0;strokeColor=#000000;align=left;" parent="8r3OX-Z8Waoc3_b8A32Y-41" vertex="1">
          <mxGeometry x="-10" y="-10" width="150" height="90" as="geometry" />
        </mxCell>
        <mxCell id="8r3OX-Z8Waoc3_b8A32Y-43" value="2.3" style="text;html=1;resizable=0;autosize=1;align=center;verticalAlign=middle;points=[];fillColor=none;rounded=0;sketch=0;strokeColor=#000000;" parent="8r3OX-Z8Waoc3_b8A32Y-41" vertex="1">
          <mxGeometry x="-10" y="-10" width="40" height="30" as="geometry" />
        </mxCell>
        <mxCell id="8r3OX-Z8Waoc3_b8A32Y-44" value="Átirányítás" style="text;html=1;resizable=0;autosize=1;align=center;verticalAlign=middle;points=[];fillColor=none;strokeColor=none;rounded=0;sketch=0;" parent="8r3OX-Z8Waoc3_b8A32Y-41" vertex="1">
          <mxGeometry x="25" y="35" width="80" height="30" as="geometry" />
        </mxCell>
        <mxCell id="8r3OX-Z8Waoc3_b8A32Y-45" value="Bejelentkezés" style="rounded=0;whiteSpace=wrap;html=1;sketch=0;strokeColor=#000000;align=left;" parent="8r3OX-Z8Waoc3_b8A32Y-41" vertex="1">
          <mxGeometry x="30" y="-10" width="110" height="30" as="geometry" />
        </mxCell>
        <mxCell id="LLBartqxIDHO0LPS1yn0-3" value="" style="endArrow=none;html=1;rounded=0;exitX=0.75;exitY=1;exitDx=0;exitDy=0;entryX=1;entryY=0.75;entryDx=0;entryDy=0;" parent="8r3OX-Z8Waoc3_b8A32Y-41" source="8r3OX-Z8Waoc3_b8A32Y-42" target="8r3OX-Z8Waoc3_b8A32Y-42" edge="1">
          <mxGeometry width="50" height="50" relative="1" as="geometry">
            <mxPoint x="-104.99999999999994" y="200" as="sourcePoint" />
            <mxPoint x="-69.99999999999994" y="175" as="targetPoint" />
          </mxGeometry>
        </mxCell>
        <mxCell id="LLBartqxIDHO0LPS1yn0-8" value="" style="dashed=0;aspect=fixed;verticalLabelPosition=bottom;verticalAlign=top;align=center;shape=mxgraph.gmdl.star;strokeColor=none;fillColor=#737373;shadow=0;sketch=0;" parent="8r3OX-Z8Waoc3_b8A32Y-41" vertex="1">
          <mxGeometry x="126.00000000000006" y="67" width="10" height="10" as="geometry" />
        </mxCell>
        <mxCell id="8r3OX-Z8Waoc3_b8A32Y-46" value="" style="endArrow=classic;html=1;rounded=0;exitX=0.998;exitY=0.715;exitDx=0;exitDy=0;exitPerimeter=0;entryX=0;entryY=0.25;entryDx=0;entryDy=0;" parent="8r3OX-Z8Waoc3_b8A32Y-9" source="8r3OX-Z8Waoc3_b8A32Y-19" target="8r3OX-Z8Waoc3_b8A32Y-42" edge="1">
          <mxGeometry relative="1" as="geometry">
            <mxPoint x="160" y="190" as="sourcePoint" />
            <mxPoint x="260" y="190" as="targetPoint" />
          </mxGeometry>
        </mxCell>
        <mxCell id="8r3OX-Z8Waoc3_b8A32Y-47" value="Sikeres" style="edgeLabel;resizable=0;html=1;align=center;verticalAlign=middle;" parent="8r3OX-Z8Waoc3_b8A32Y-46" connectable="0" vertex="1">
          <mxGeometry relative="1" as="geometry">
            <mxPoint y="-9" as="offset" />
          </mxGeometry>
        </mxCell>
        <mxCell id="8r3OX-Z8Waoc3_b8A32Y-14" value="Admin" style="ellipse;whiteSpace=wrap;html=1;" parent="1" vertex="1">
          <mxGeometry x="-115" y="330" width="80" height="40" as="geometry" />
        </mxCell>
        <mxCell id="8r3OX-Z8Waoc3_b8A32Y-15" value="Látogató" style="ellipse;whiteSpace=wrap;html=1;" parent="1" vertex="1">
          <mxGeometry x="-120" y="208.75" width="90" height="50" as="geometry" />
        </mxCell>
        <mxCell id="8r3OX-Z8Waoc3_b8A32Y-26" value="" style="endArrow=classic;html=1;rounded=0;exitX=1;exitY=0.5;exitDx=0;exitDy=0;" parent="1" source="8r3OX-Z8Waoc3_b8A32Y-15" target="8r3OX-Z8Waoc3_b8A32Y-19" edge="1">
          <mxGeometry relative="1" as="geometry">
            <mxPoint x="360" y="330" as="sourcePoint" />
            <mxPoint x="460" y="330" as="targetPoint" />
          </mxGeometry>
        </mxCell>
        <mxCell id="8r3OX-Z8Waoc3_b8A32Y-27" value="Bejelentkezési adatok" style="edgeLabel;resizable=0;html=1;align=center;verticalAlign=middle;" parent="8r3OX-Z8Waoc3_b8A32Y-26" connectable="0" vertex="1">
          <mxGeometry relative="1" as="geometry">
            <mxPoint x="-15" y="-9" as="offset" />
          </mxGeometry>
        </mxCell>
        <mxCell id="8r3OX-Z8Waoc3_b8A32Y-28" value="" style="endArrow=classic;html=1;rounded=0;exitX=1;exitY=0.5;exitDx=0;exitDy=0;entryX=0;entryY=0.75;entryDx=0;entryDy=0;" parent="1" target="8r3OX-Z8Waoc3_b8A32Y-17" edge="1">
          <mxGeometry relative="1" as="geometry">
            <mxPoint x="-35" y="349.5" as="sourcePoint" />
            <mxPoint x="155" y="349.5" as="targetPoint" />
            <Array as="points">
              <mxPoint x="-35" y="250" />
            </Array>
          </mxGeometry>
        </mxCell>
        <mxCell id="8r3OX-Z8Waoc3_b8A32Y-29" value="Bejelentkezési adatok" style="edgeLabel;resizable=0;html=1;align=center;verticalAlign=middle;" parent="8r3OX-Z8Waoc3_b8A32Y-28" connectable="0" vertex="1">
          <mxGeometry relative="1" as="geometry">
            <mxPoint x="38" y="9" as="offset" />
          </mxGeometry>
        </mxCell>
        <mxCell id="8r3OX-Z8Waoc3_b8A32Y-31" value="" style="endArrow=classic;html=1;rounded=0;exitX=0.007;exitY=0.897;exitDx=0;exitDy=0;entryX=0.5;entryY=1;entryDx=0;entryDy=0;exitPerimeter=0;" parent="1" source="8r3OX-Z8Waoc3_b8A32Y-22" target="8r3OX-Z8Waoc3_b8A32Y-14" edge="1">
          <mxGeometry relative="1" as="geometry">
            <mxPoint x="280" y="330" as="sourcePoint" />
            <mxPoint x="380" y="330" as="targetPoint" />
            <Array as="points">
              <mxPoint x="-75" y="400" />
            </Array>
          </mxGeometry>
        </mxCell>
        <mxCell id="8r3OX-Z8Waoc3_b8A32Y-32" value="Visszajelzés" style="edgeLabel;resizable=0;html=1;align=center;verticalAlign=middle;" parent="8r3OX-Z8Waoc3_b8A32Y-31" connectable="0" vertex="1">
          <mxGeometry relative="1" as="geometry">
            <mxPoint y="-10" as="offset" />
          </mxGeometry>
        </mxCell>
        <mxCell id="8r3OX-Z8Waoc3_b8A32Y-33" value="" style="endArrow=classic;html=1;rounded=0;entryX=0;entryY=0.5;entryDx=0;entryDy=0;" parent="1" target="8r3OX-Z8Waoc3_b8A32Y-15" edge="1">
          <mxGeometry relative="1" as="geometry">
            <mxPoint x="160" y="410" as="sourcePoint" />
            <mxPoint x="-65" y="380" as="targetPoint" />
            <Array as="points">
              <mxPoint x="-65" y="410" />
              <mxPoint x="-120" y="410" />
            </Array>
          </mxGeometry>
        </mxCell>
        <mxCell id="8r3OX-Z8Waoc3_b8A32Y-34" value="Visszajelzés" style="edgeLabel;resizable=0;html=1;align=center;verticalAlign=middle;" parent="8r3OX-Z8Waoc3_b8A32Y-33" connectable="0" vertex="1">
          <mxGeometry relative="1" as="geometry">
            <mxPoint x="93" y="10" as="offset" />
          </mxGeometry>
        </mxCell>
        <mxCell id="8r3OX-Z8Waoc3_b8A32Y-38" value="D2&lt;span style=&quot;white-space: pre;&quot;&gt;&#x9;&lt;/span&gt;Felhasználók" style="html=1;dashed=0;whitespace=wrap;shape=mxgraph.dfd.dataStoreID;align=left;spacingLeft=3;points=[[0,0],[0.5,0],[1,0],[0,0.5],[1,0.5],[0,1],[0.5,1],[1,1]];" parent="1" vertex="1">
          <mxGeometry x="650" y="190" width="110" height="30" as="geometry" />
        </mxCell>
        <mxCell id="8r3OX-Z8Waoc3_b8A32Y-39" value="" style="endArrow=classic;html=1;rounded=0;exitX=0;exitY=0.5;exitDx=0;exitDy=0;entryX=1;entryY=0.75;entryDx=0;entryDy=0;" parent="1" source="8r3OX-Z8Waoc3_b8A32Y-38" target="8r3OX-Z8Waoc3_b8A32Y-20" edge="1">
          <mxGeometry relative="1" as="geometry">
            <mxPoint x="280" y="330" as="sourcePoint" />
            <mxPoint x="380" y="330" as="targetPoint" />
          </mxGeometry>
        </mxCell>
        <mxCell id="8r3OX-Z8Waoc3_b8A32Y-40" value="Adatok" style="edgeLabel;resizable=0;html=1;align=center;verticalAlign=middle;" parent="8r3OX-Z8Waoc3_b8A32Y-39" connectable="0" vertex="1">
          <mxGeometry relative="1" as="geometry">
            <mxPoint y="-9" as="offset" />
          </mxGeometry>
        </mxCell>
        <mxCell id="8r3OX-Z8Waoc3_b8A32Y-49" value="" style="endArrow=classic;html=1;rounded=0;entryX=0.308;entryY=0.003;entryDx=0;entryDy=0;entryPerimeter=0;" parent="1" target="8r3OX-Z8Waoc3_b8A32Y-25" edge="1">
          <mxGeometry relative="1" as="geometry">
            <mxPoint x="230" y="270" as="sourcePoint" />
            <mxPoint x="380" y="320" as="targetPoint" />
          </mxGeometry>
        </mxCell>
        <mxCell id="8r3OX-Z8Waoc3_b8A32Y-50" value="Sikertelen" style="edgeLabel;resizable=0;html=1;align=center;verticalAlign=middle;" parent="8r3OX-Z8Waoc3_b8A32Y-49" connectable="0" vertex="1">
          <mxGeometry relative="1" as="geometry">
            <mxPoint x="32" as="offset" />
          </mxGeometry>
        </mxCell>
        <mxCell id="8r3OX-Z8Waoc3_b8A32Y-51" value="" style="group" parent="1" vertex="1" connectable="0">
          <mxGeometry x="640" y="250" width="140" height="80" as="geometry" />
        </mxCell>
        <mxCell id="8r3OX-Z8Waoc3_b8A32Y-52" value="" style="html=1;dashed=0;whitespace=wrap;rounded=0;sketch=0;strokeColor=#000000;align=left;" parent="8r3OX-Z8Waoc3_b8A32Y-51" vertex="1">
          <mxGeometry y="-10" width="140" height="90" as="geometry" />
        </mxCell>
        <mxCell id="8r3OX-Z8Waoc3_b8A32Y-53" value="4" style="text;html=1;resizable=0;autosize=1;align=center;verticalAlign=middle;points=[];fillColor=none;rounded=0;sketch=0;strokeColor=#000000;" parent="8r3OX-Z8Waoc3_b8A32Y-51" vertex="1">
          <mxGeometry y="-10" width="30" height="30" as="geometry" />
        </mxCell>
        <mxCell id="8r3OX-Z8Waoc3_b8A32Y-54" value="Könyvek böngészése" style="text;html=1;resizable=0;autosize=1;align=center;verticalAlign=middle;points=[];fillColor=none;strokeColor=none;rounded=0;sketch=0;" parent="8r3OX-Z8Waoc3_b8A32Y-51" vertex="1">
          <mxGeometry y="25" width="140" height="30" as="geometry" />
        </mxCell>
        <mxCell id="8r3OX-Z8Waoc3_b8A32Y-55" value="Böngésző" style="rounded=0;whiteSpace=wrap;html=1;sketch=0;strokeColor=#000000;align=left;" parent="8r3OX-Z8Waoc3_b8A32Y-51" vertex="1">
          <mxGeometry x="30" y="-10" width="110" height="30" as="geometry" />
        </mxCell>
        <mxCell id="LLBartqxIDHO0LPS1yn0-4" value="" style="endArrow=none;html=1;rounded=0;exitX=0.75;exitY=1;exitDx=0;exitDy=0;entryX=1;entryY=0.75;entryDx=0;entryDy=0;" parent="8r3OX-Z8Waoc3_b8A32Y-51" source="8r3OX-Z8Waoc3_b8A32Y-52" target="8r3OX-Z8Waoc3_b8A32Y-52" edge="1">
          <mxGeometry width="50" height="50" relative="1" as="geometry">
            <mxPoint x="-345" y="190" as="sourcePoint" />
            <mxPoint x="-310" y="165" as="targetPoint" />
          </mxGeometry>
        </mxCell>
        <mxCell id="LLBartqxIDHO0LPS1yn0-9" value="" style="dashed=0;aspect=fixed;verticalLabelPosition=bottom;verticalAlign=top;align=center;shape=mxgraph.gmdl.star;strokeColor=none;fillColor=#737373;shadow=0;sketch=0;" parent="8r3OX-Z8Waoc3_b8A32Y-51" vertex="1">
          <mxGeometry x="126" y="67" width="10" height="10" as="geometry" />
        </mxCell>
        <mxCell id="8r3OX-Z8Waoc3_b8A32Y-59" value="" style="endArrow=classic;html=1;rounded=0;exitX=1;exitY=0.5;exitDx=0;exitDy=0;entryX=-0.033;entryY=0.856;entryDx=0;entryDy=0;entryPerimeter=0;" parent="1" source="8r3OX-Z8Waoc3_b8A32Y-42" target="8r3OX-Z8Waoc3_b8A32Y-53" edge="1">
          <mxGeometry width="50" height="50" relative="1" as="geometry">
            <mxPoint x="310" y="340" as="sourcePoint" />
            <mxPoint x="360" y="290" as="targetPoint" />
          </mxGeometry>
        </mxCell>
        <mxCell id="8r3OX-Z8Waoc3_b8A32Y-60" value="" style="group" parent="1" vertex="1" connectable="0">
          <mxGeometry x="640" y="370" width="140" height="80" as="geometry" />
        </mxCell>
        <mxCell id="8r3OX-Z8Waoc3_b8A32Y-61" value="" style="html=1;dashed=0;whitespace=wrap;rounded=0;sketch=0;strokeColor=#000000;align=left;" parent="8r3OX-Z8Waoc3_b8A32Y-60" vertex="1">
          <mxGeometry y="-10" width="140" height="90" as="geometry" />
        </mxCell>
        <mxCell id="8r3OX-Z8Waoc3_b8A32Y-62" value="5." style="text;html=1;resizable=0;autosize=1;align=center;verticalAlign=middle;points=[];fillColor=none;rounded=0;sketch=0;strokeColor=#000000;" parent="8r3OX-Z8Waoc3_b8A32Y-60" vertex="1">
          <mxGeometry y="-10" width="30" height="30" as="geometry" />
        </mxCell>
        <mxCell id="8r3OX-Z8Waoc3_b8A32Y-63" value="Könyvek, Műfajok,&lt;br&gt;Áruházak és&lt;br&gt;Készletek kezelése" style="text;html=1;resizable=0;autosize=1;align=center;verticalAlign=middle;points=[];fillColor=none;strokeColor=none;rounded=0;sketch=0;" parent="8r3OX-Z8Waoc3_b8A32Y-60" vertex="1">
          <mxGeometry x="5" y="17" width="130" height="60" as="geometry" />
        </mxCell>
        <mxCell id="8r3OX-Z8Waoc3_b8A32Y-64" value="Admin oldal" style="rounded=0;whiteSpace=wrap;html=1;sketch=0;strokeColor=#000000;align=left;" parent="8r3OX-Z8Waoc3_b8A32Y-60" vertex="1">
          <mxGeometry x="30" y="-10" width="110" height="30" as="geometry" />
        </mxCell>
        <mxCell id="LLBartqxIDHO0LPS1yn0-5" value="" style="endArrow=none;html=1;rounded=0;exitX=0.75;exitY=1;exitDx=0;exitDy=0;entryX=1;entryY=0.75;entryDx=0;entryDy=0;" parent="8r3OX-Z8Waoc3_b8A32Y-60" source="8r3OX-Z8Waoc3_b8A32Y-61" target="8r3OX-Z8Waoc3_b8A32Y-61" edge="1">
          <mxGeometry width="50" height="50" relative="1" as="geometry">
            <mxPoint x="-335" y="80" as="sourcePoint" />
            <mxPoint x="-300" y="55" as="targetPoint" />
          </mxGeometry>
        </mxCell>
        <mxCell id="LLBartqxIDHO0LPS1yn0-10" value="" style="dashed=0;aspect=fixed;verticalLabelPosition=bottom;verticalAlign=top;align=center;shape=mxgraph.gmdl.star;strokeColor=none;fillColor=#737373;shadow=0;sketch=0;" parent="8r3OX-Z8Waoc3_b8A32Y-60" vertex="1">
          <mxGeometry x="125" y="67" width="10" height="10" as="geometry" />
        </mxCell>
        <mxCell id="8r3OX-Z8Waoc3_b8A32Y-65" value="" style="endArrow=classic;html=1;rounded=0;exitX=1;exitY=0.75;exitDx=0;exitDy=0;entryX=0;entryY=0.5;entryDx=0;entryDy=0;" parent="1" source="8r3OX-Z8Waoc3_b8A32Y-42" target="8r3OX-Z8Waoc3_b8A32Y-61" edge="1">
          <mxGeometry width="50" height="50" relative="1" as="geometry">
            <mxPoint x="310" y="340" as="sourcePoint" />
            <mxPoint x="360" y="290" as="targetPoint" />
            <Array as="points">
              <mxPoint x="580" y="288" />
              <mxPoint x="580" y="405" />
            </Array>
          </mxGeometry>
        </mxCell>
        <mxCell id="LLBartqxIDHO0LPS1yn0-1" value="" style="endArrow=none;html=1;rounded=0;exitX=0.75;exitY=1;exitDx=0;exitDy=0;entryX=1;entryY=0.75;entryDx=0;entryDy=0;" parent="1" edge="1">
          <mxGeometry width="50" height="50" relative="1" as="geometry">
            <mxPoint x="265" y="410" as="sourcePoint" />
            <mxPoint x="300" y="385" as="targetPoint" />
          </mxGeometry>
        </mxCell>
        <mxCell id="LLBartqxIDHO0LPS1yn0-6" value="" style="dashed=0;aspect=fixed;verticalLabelPosition=bottom;verticalAlign=top;align=center;shape=mxgraph.gmdl.star;strokeColor=none;fillColor=#737373;shadow=0;sketch=0;" parent="1" vertex="1">
          <mxGeometry x="285" y="395" width="10" height="10" as="geometry" />
        </mxCell>
      </root>
    </mxGraphModel>
  </diagram>
</mxfile>
